Coordinates
version=1
nRows=20
nColumns=38
inDegrees=no

Units are S.I. units (second, meters, Newtons, ...)
If the header above contains a line with 'inDegrees', this indicates whether rotational values are in degrees (yes) or radians (no).

endheader
time	pelvis_tilt	pelvis_list	pelvis_rotation	pelvis_tx	pelvis_ty	pelvis_tz	hip_flexion_r	hip_adduction_r	hip_rotation_r	knee_angle_r	ankle_angle_r	subtalar_angle_r	mtp_angle_r	hip_flexion_l	hip_adduction_l	hip_rotation_l	knee_angle_l	ankle_angle_l	subtalar_angle_l	mtp_angle_l	lumbar_extension	lumbar_bending	lumbar_rotation	arm_flex_r	arm_add_r	arm_rot_r	elbow_flex_r	pro_sup_r	wrist_flex_r	wrist_dev_r	arm_flex_l	arm_add_l	arm_rot_l	elbow_flex_l	pro_sup_l	wrist_flex_l	wrist_dev_l
5.68	2.47259	1.40562	-0.636399	0.679728	0.447287	0.952755	0.102231	0.0013865	-0.424735	0.412359	0.137732	0	0	-0.424672	-0.259462	-0.312357	0.240866	-0.0837613	0	0	-0.649989	0.205174	-0.0886888	0.806337	-0.837469	1.24075	1.26581	0.559507	0	0	0.460434	-0.52326	0.648088	1.54102	0.988517	0	0
5.69	2.45713	1.40814	-0.620079	0.681047	0.452108	0.951601	0.104967	0.00171731	-0.429502	0.400031	0.134238	0	0	-0.421755	-0.263254	-0.31162	0.247076	-0.0869884	0	0	-0.648731	0.206715	-0.0885787	0.781934	-0.847106	1.2156	1.29488	0.575211	0	0	0.441828	-0.532667	0.638428	1.56008	0.993698	0	0
5.7	2.44029	1.41122	-0.602444	0.682345	0.456951	0.95023	0.107416	0.00245404	-0.431181	0.386545	0.137922	0	0	-0.418664	-0.26652	-0.310372	0.252869	-0.0891764	0	0	-0.647202	0.207968	-0.0883022	0.755809	-0.857124	1.18983	1.32441	0.591321	0	0	0.422832	-0.542289	0.629356	1.57871	1.00002	0	0
5.71	2.42088	1.41487	-0.58253	0.683669	0.461937	0.948614	0.109563	0.00335257	-0.43222	0.370361	0.137051	0	0	-0.415558	-0.269476	-0.310098	0.258072	-0.0905785	0	0	-0.644927	0.208869	-0.0881626	0.729335	-0.866543	1.16582	1.35343	0.604724	0	0	0.402847	-0.552357	0.620874	1.59702	1.00755	0	0
5.72	2.39904	1.41859	-0.560135	0.685012	0.467063	0.946781	0.111051	0.00465105	-0.433489	0.351826	0.134453	0	0	-0.412741	-0.272751	-0.311036	0.262577	-0.0916375	0	0	-0.642241	0.209805	-0.0878518	0.700567	-0.875457	1.13978	1.38205	0.622613	0	0	0.38266	-0.562455	0.613143	1.61491	1.01629	0	0
5.73	2.37574	1.42265	-0.536335	0.686381	0.472242	0.944759	0.112553	0.00553353	-0.434625	0.333989	0.127314	0	0	-0.410154	-0.275646	-0.31149	0.266523	-0.0924443	0	0	-0.639129	0.21047	-0.0878731	0.671211	-0.883326	1.11419	1.40965	0.641218	0	0	0.36058	-0.571838	0.602883	1.63349	1.02462	0	0
5.74	2.35025	1.42786	-0.510722	0.687855	0.477498	0.942507	0.115119	0.00506808	-0.43455	0.320723	0.105839	0	0	-0.407176	-0.277348	-0.311073	0.270401	-0.0933363	0	0	-0.635002	0.210202	-0.0883725	0.64153	-0.890276	1.08984	1.43623	0.659757	0	0	0.326144	-0.574156	0.572108	1.65433	1.04006	0	0
5.75	2.32405	1.43486	-0.485484	0.689514	0.482918	0.939937	0.119909	0.00225147	-0.434475	0.316061	0.0697967	0	0	-0.404272	-0.276799	-0.311045	0.273505	-0.0942138	0	0	-0.629399	0.207647	-0.0886913	0.609882	-0.89645	1.06526	1.46136	0.678729	0	0	0.30114	-0.581927	0.556942	1.67143	1.05505	0	0
5.76	2.2896	1.44281	-0.453784	0.691467	0.488438	0.937206	0.129815	-0.00276043	-0.435623	0.3243	0.0426214	0	0	-0.400857	-0.27518	-0.312484	0.276537	-0.0955055	0	0	-0.622633	0.203373	-0.0875397	0.573395	-0.900593	1.03345	1.48378	0.725541	0	0	0.276527	-0.588708	0.541758	1.68617	1.08944	0	0
5.77	2.25477	1.44963	-0.422938	0.693611	0.493852	0.934699	0.144447	-0.0098888	-0.439742	0.350343	0.0560872	0	0	-0.398282	-0.273688	-0.314116	0.279808	-0.097929	0	0	-0.617264	0.199247	-0.0854385	0.541095	-0.904455	1.00818	1.50771	0.745297	0	0	0.252355	-0.595655	0.527981	1.70067	1.10387	0	0
5.78	2.23017	1.45299	-0.402325	0.695753	0.499176	0.932793	0.156091	-0.0135851	-0.439232	0.379244	0.0807675	0	0	-0.398256	-0.274545	-0.315241	0.28366	-0.101416	0	0	-0.61517	0.197501	-0.0826562	0.515205	-0.907313	0.99073	1.52981	0.758522	0	0	0.228967	-0.601929	0.515515	1.71189	1.1141	0	0
5.79	2.15457	1.44785	-0.338199	0.699311	0.503345	0.93198	0.17849	-0.0288072	-0.526735	0.429695	0.0917746	0	0	-0.395015	-0.284971	-0.321924	0.292199	-0.107549	0	0	-0.617144	0.200754	-0.0671305	0.492303	-0.909872	0.970941	1.55223	0.7773	0	0	0.209006	-0.605899	0.50328	1.7206	1.12951	0	0
5.8	2.20731	1.45235	-0.387517	0.69956	0.509409	0.930761	0.167181	-0.00932003	-0.428787	0.415107	0.0966078	0	0	-0.402366	-0.280841	-0.310919	0.293415	-0.115733	0	0	-0.619273	0.200145	-0.0742742	0.472842	-0.912406	0.965891	1.57272	0.760602	0	0	0.182906	-0.610417	0.493702	1.7297	1.11516	0	0
5.81	2.19792	1.45044	-0.383406	0.701602	0.514497	0.930372	0.168215	-0.00280057	-0.418121	0.424593	0.101161	0	0	-0.403283	-0.284694	-0.310201	0.301061	-0.127146	0	0	-0.62341	0.201815	-0.0665753	0.443168	-0.913276	0.939933	1.59172	0.800594	0	0	0.16125	-0.611427	0.481617	1.73551	1.14377	0	0
5.82	2.01	1.45648	-0.200158	0.703692	0.521134	0.928975	0.188356	0.00275302	-0.412192	0.428002	0.104916	0	0	-0.378555	-0.288345	-0.30599	0.311485	-0.141931	0	0	-0.584174	0.200144	-0.0642508	0.420782	-0.895881	0.941189	1.56571	0.799839	0	0	0.149479	-0.604128	0.490815	1.70317	1.14099	0	0
5.83	2.23901	1.4087	-0.399626	0.703124	0.52914	0.933998	0.103624	0.0536619	-0.449881	0.370739	0.0848101	0	0	-0.425181	-0.342178	-0.303915	0.31371	-0.162638	0	0	-0.629315	0.246862	-0.0650176	0.38896	-0.89253	0.916374	1.57878	0.824976	0	0	0.125536	-0.60586	0.476441	1.70925	1.15604	0	0
5.84	1.97123	1.45655	-0.169341	0.708266	0.531372	0.928779	0.182376	0.0131521	-0.407479	0.426245	0.11358	0	0	-0.365323	-0.296414	-0.299543	0.341121	-0.171763	0	0	-0.58723	0.199322	-0.0539497	0.357301	-0.886745	0.887465	1.58761	0.865288	0	0	0.104874	-0.605447	0.460264	1.71254	1.18215	0	0
5.85	1.95729	1.45864	-0.159352	0.710654	0.536301	0.929057	0.176939	0.0167817	-0.405557	0.42081	0.116796	0	0	-0.356318	-0.298237	-0.294181	0.358518	-0.18797	0	0	-0.588631	0.196266	-0.0503579	0.330121	-0.880425	0.868156	1.59592	0.863089	0	0	0.0835098	-0.606175	0.444936	1.71695	1.18084	0	0
5.86	1.94621	1.46104	-0.152173	0.713103	0.541185	0.929584	0.169915	0.020469	-0.403422	0.412599	0.119192	0	0	-0.346423	-0.299832	-0.288872	0.377262	-0.207163	0	0	-0.59041	0.192184	-0.0459825	0.29914	-0.871998	0.84153	1.6017	0.881912	0	0	0.0634091	-0.605936	0.429507	1.72051	1.19314	0	0
5.87	1.94031	1.4633	-0.150041	0.715527	0.545952	0.930392	0.161261	0.0243661	-0.401554	0.402165	0.119998	0	0	-0.336074	-0.301064	-0.282706	0.39653	-0.230237	0	0	-0.592702	0.187748	-0.0412416	0.268735	-0.862458	0.814272	1.60582	0.902393	0	0	0.0452496	-0.605133	0.415778	1.72243	1.20683	0	0
